<svg width="805" height="810" viewBox="0 0 805 810" fill="none" xmlns="http://www.w3.org/2000/svg">
<g filter="url(#filter0_f)">
<path d="M321.392 606.438C215.324 565.763 162.312 446.804 202.987 340.736C243.662 234.668 362.621 181.656 468.689 222.331C574.757 263.006 627.769 381.964 587.094 488.033C546.419 594.101 427.46 647.112 321.392 606.438Z" fill="url(#paint0_radial)"/>
</g>
<g filter="url(#filter1_i)">
<path d="M350.462 537.13C255.185 500.594 207.567 393.738 244.103 298.461C280.64 203.184 387.496 155.566 482.773 192.103C578.05 228.639 625.668 335.495 589.131 430.772C552.595 526.049 445.739 573.667 350.462 537.13Z" fill="url(#paint1_radial)"/>
</g>
<path d="M437.659 315.399L435.998 317.39L407.267 383.63L407.648 384.591L446.279 379.753L437.659 315.399Z" fill="white" fill-opacity="0.82"/>
<path d="M437.659 315.398L384.783 353.08L407.648 384.591L421.593 352.441L437.659 315.398Z" fill="white" fill-opacity="0.333"/>
<path d="M405.122 390.413L404.544 390.71L394.309 414.306L394.208 415.576L443.767 385.591L405.122 390.413Z" fill="white" fill-opacity="0.82"/>
<path d="M394.209 415.574L405.123 390.412L382.255 358.909L394.209 415.574Z" fill="white" fill-opacity="0.333"/>
<path d="M407.649 384.59L446.279 379.752L421.593 352.44L407.649 384.59Z" fill="white"/>
<path d="M384.783 353.08L407.648 384.591L421.592 352.441L384.783 353.08Z" fill="white" fill-opacity="0.82"/>
<g filter="url(#filter2_f)">
<path d="M438.659 318.399L436.998 320.39L408.267 386.629L408.648 387.591L447.279 382.753L438.659 318.399Z" fill="white" fill-opacity="0.82"/>
<path d="M438.659 318.398L385.783 356.079L408.648 387.591L422.593 355.44L438.659 318.398Z" fill="white" fill-opacity="0.333"/>
<path d="M406.122 393.413L405.544 393.71L395.309 417.306L395.208 418.575L444.767 388.591L406.122 393.413Z" fill="white" fill-opacity="0.82"/>
<path d="M395.209 418.574L406.123 393.411L383.255 361.909L395.209 418.574Z" fill="white" fill-opacity="0.333"/>
<path d="M408.649 387.59L447.279 382.752L422.593 355.44L408.649 387.59Z" fill="white"/>
<path d="M385.783 356.08L408.648 387.591L422.592 355.441L385.783 356.08Z" fill="white" fill-opacity="0.82"/>
</g>
<defs>
<filter id="filter0_f" x="21.2949" y="40.6381" width="747.492" height="747.492" filterUnits="userSpaceOnUse" color-interpolation-filters="sRGB">
<feFlood flood-opacity="0" result="BackgroundImageFix"/>
<feBlend mode="normal" in="SourceGraphic" in2="BackgroundImageFix" result="shape"/>
<feGaussianBlur stdDeviation="84" result="effect1_foregroundBlur"/>
</filter>
<filter id="filter1_i" x="231.804" y="179.803" width="369.627" height="369.627" filterUnits="userSpaceOnUse" color-interpolation-filters="sRGB">
<feFlood flood-opacity="0" result="BackgroundImageFix"/>
<feBlend mode="normal" in="SourceGraphic" in2="BackgroundImageFix" result="shape"/>
<feColorMatrix in="SourceAlpha" type="matrix" values="0 0 0 0 0 0 0 0 0 0 0 0 0 0 0 0 0 0 127 0" result="hardAlpha"/>
<feOffset/>
<feGaussianBlur stdDeviation="34.5"/>
<feComposite in2="hardAlpha" operator="arithmetic" k2="-1" k3="1"/>
<feColorMatrix type="matrix" values="0 0 0 0 0.94475 0 0 0 0 0.7875 0 0 0 0 1 0 0 0 0.72 0"/>
<feBlend mode="normal" in2="shape" result="effect1_innerShadow"/>
</filter>
<filter id="filter2_f" x="297.989" y="249.62" width="237.66" height="237.66" filterUnits="userSpaceOnUse" color-interpolation-filters="sRGB">
<feFlood flood-opacity="0" result="BackgroundImageFix"/>
<feBlend mode="normal" in="SourceGraphic" in2="BackgroundImageFix" result="shape"/>
<feGaussianBlur stdDeviation="23.5" result="effect1_foregroundBlur"/>
</filter>
<radialGradient id="paint0_radial" cx="0" cy="0" r="1" gradientUnits="userSpaceOnUse" gradientTransform="translate(238.707 480.02) rotate(-22.9521) scale(404.74 437.511)">
<stop stop-color="#386480"/>
<stop offset="0.682292" stop-color="#5B4BB9"/>
<stop offset="0.864" stop-color="#A2E7FD"/>
</radialGradient>
<radialGradient id="paint1_radial" cx="0" cy="0" r="1" gradientUnits="userSpaceOnUse" gradientTransform="translate(276.189 423.575) rotate(-22.9521) scale(363.562 392.999)">
<stop stop-color="#386480"/>
<stop offset="0.682292" stop-color="#5B4BB9"/>
<stop offset="0.876037" stop-color="#A2E7FD"/>
<stop offset="0.923324" stop-color="white"/>
</radialGradient>
</defs>
</svg>
