<svg width="169" height="64" viewBox="0 0 169 64" fill="none" xmlns="http://www.w3.org/2000/svg">
<g clip-path="url(#clip0-247088)">
<path d="M135.191 28.877C135.305 28.8391 135.381 28.8201 135.438 28.8201C136.235 28.8201 137.051 28.8201 137.887 28.8201C138.475 31.1173 139.178 33.3386 139.671 35.6738C139.937 34.5537 140.203 33.4335 140.469 32.3134C140.735 31.1743 141.019 30.0351 141.304 28.858C142.197 28.858 143.07 28.858 144.019 28.858C144.665 31.1173 145.272 33.4525 145.804 35.7878C146.297 33.4525 146.924 31.1743 147.494 28.858C148.329 28.858 149.145 28.858 150 28.858C148.993 32.2185 148.006 35.5599 147.019 38.9014C146.108 38.9014 145.215 38.9014 144.266 38.9014C143.734 36.6041 143.127 34.3259 142.614 31.9906C142.197 34.3449 141.475 36.6041 140.963 38.9204C140.032 38.9204 139.159 38.9204 138.21 38.9204C137.184 35.5789 136.197 32.2375 135.191 28.877Z" fill="white" fill-opacity="0.82"/>
<path d="M73.716 30.6427C72.7668 30.6427 71.8744 30.6427 71.0011 30.6427C70.8492 30.4718 70.9252 30.263 70.8872 30.0921C70.5455 28.6112 69.5202 28.0227 68.2102 27.8708C67.6597 27.8138 67.1281 27.9088 66.6155 28.0607C65.6282 28.3454 65.0017 29.0099 64.66 29.9592C64.4701 30.4908 64.3372 31.0414 64.3562 31.6109C64.3752 32.4843 64.2992 33.3576 64.4891 34.2309C64.8308 35.7878 65.97 36.794 67.7356 36.794C68.4381 36.794 69.0836 36.6991 69.7101 36.3573C70.3936 35.9776 70.8113 35.408 70.9252 34.6296C70.9442 34.4398 70.9821 34.2689 71.115 34.0791C71.8744 34.0791 72.6529 34.0791 73.4313 34.0791C73.5262 34.0791 73.6211 34.0411 73.754 34.193C73.754 35.9396 73.0705 37.3636 71.4947 38.2938C70.6784 38.7875 69.7671 38.9773 68.8178 39.1102C67.5647 39.2621 66.3686 39.1292 65.1915 38.7685C63.5398 38.2559 62.4576 37.1357 61.945 35.484C61.3185 33.4715 61.2995 31.4401 61.8881 29.4276C62.4576 27.4531 63.8246 26.2001 65.7991 25.7444C67.4318 25.3647 69.0646 25.4027 70.6784 25.9912C72.5769 26.6747 73.9249 28.6682 73.716 30.6427Z" fill="white" fill-opacity="0.82"/>
<path d="M78.1777 38.9014C77.2664 38.9014 76.4501 38.9014 75.5957 38.9014C75.5957 34.2689 75.5957 29.6745 75.5957 25.042C76.4311 25.042 77.2474 25.042 78.1587 25.042C78.1777 25.4407 78.1587 25.8584 78.1587 26.276C78.1587 26.6747 78.1587 27.0734 78.1587 27.4911C78.1587 27.9088 78.1587 28.3455 78.1587 28.7632C78.1587 29.1618 78.1587 29.5605 78.1587 29.9972C78.4815 29.8833 78.6334 29.6555 78.8232 29.4846C79.9814 28.4024 81.804 28.2885 83.1899 29.0289C83.9493 29.4276 84.405 30.1491 84.5379 31.0034C84.6138 31.4211 84.6518 31.8388 84.6518 32.2755C84.6708 34.4018 84.6518 36.5472 84.6518 38.6736C84.6518 38.7305 84.6328 38.8065 84.6138 38.9014C83.7595 38.9014 82.9051 38.9014 82.0508 38.9014C81.8989 38.7495 81.9748 38.5407 81.9748 38.3698C81.9748 36.4903 81.9748 34.6297 81.9748 32.7501C81.9748 32.3704 81.9558 31.9907 81.766 31.6489C81.6331 31.3832 81.4432 31.1743 81.1585 31.0794C79.7915 30.6617 78.7473 31.0224 78.2727 32.4084C78.1587 32.7311 78.1587 33.0539 78.1587 33.3956C78.1587 34.9904 78.1587 36.5662 78.1587 38.161C78.1777 38.3888 78.1777 38.6166 78.1777 38.9014Z" fill="white" fill-opacity="0.82"/>
<path d="M92.2458 32.6933C92.2648 31.9149 92.3977 31.1555 91.5243 30.6808C90.7839 30.6618 89.9675 30.415 89.322 31.1365C89.1891 31.3263 89.2841 31.5731 89.1701 31.782C88.3538 31.782 87.5374 31.782 86.721 31.782C86.5691 30.5479 86.9488 29.7695 88.012 29.2C89.1512 28.5924 90.3852 28.4785 91.6572 28.6304C91.923 28.6684 92.2078 28.7253 92.4926 28.7823C94.1823 29.162 94.9038 30.3581 94.9228 31.8959C94.9607 33.2439 94.9228 34.5918 94.9228 35.9398C94.9228 36.2056 94.8848 36.4524 94.9797 36.6992C95.2455 37.1169 95.6822 36.8891 96.0619 37.022C96.0619 37.6105 96.0619 38.2181 96.0619 38.8636C95.2835 39.2433 94.4671 39.2433 93.9165 39.0914C93.0812 38.8066 92.7964 38.351 92.5306 37.8763C92.2458 37.9713 92.1129 38.1801 91.942 38.332C90.7649 39.3762 88.5816 39.4901 87.1007 38.5408C86.4742 38.1421 86.2084 37.5156 86.1325 36.8131C85.9806 35.2373 86.5501 33.9843 88.2019 33.3578C89.0752 33.035 89.9675 32.8642 90.8788 32.7882C91.3345 32.7692 91.7522 32.7313 92.2458 32.6933ZM92.2268 34.5349C91.3914 34.4969 90.5941 34.5539 89.8346 34.8387C88.9993 35.1424 88.7715 35.5791 88.9043 36.4714C89.417 37.1169 90.1574 37.2688 91.0687 36.946C91.8281 36.6613 92.3977 35.674 92.2268 34.5349Z" fill="white" fill-opacity="0.82"/>
<path d="M124.407 33.9843C124.407 33.168 124.483 32.4465 124.692 31.744C125.11 30.1682 126.116 29.2 127.711 28.8203C129.154 28.4785 130.559 28.5355 131.963 28.9911C133.141 29.3709 133.938 30.1872 134.337 31.3264C134.697 32.4085 134.868 33.5097 134.697 34.6678C134.621 35.1804 134.602 35.693 134.451 36.2056C133.957 37.8384 132.818 38.7307 131.185 39.0725C129.989 39.3193 128.793 39.2623 127.616 38.9585C125.774 38.4839 124.863 37.2119 124.578 35.4652C124.464 34.9336 124.35 34.421 124.407 33.9843ZM129.533 36.984C131.128 37.06 131.869 36.0348 131.963 34.7248C132.001 34.1362 131.982 33.5667 131.963 32.9781C131.888 31.2694 130.502 30.491 128.888 30.7948C128.09 30.9467 127.597 31.4213 127.369 32.1997C127.027 33.3578 127.046 34.5159 127.388 35.674C127.597 36.3575 128.071 36.7942 128.774 36.9461C129.021 36.984 129.287 36.9651 129.533 36.984Z" fill="white" fill-opacity="0.82"/>
<path d="M111.326 38.9013C110.415 38.9013 109.598 38.9013 108.725 38.9013C108.725 38.6545 108.725 38.4077 108.725 38.1799C108.725 36.5471 108.725 34.9144 108.725 33.2816C108.725 33.1487 108.725 32.9969 108.725 32.864C108.706 31.3451 107.871 30.6616 106.39 30.9844C105.668 31.1363 104.966 32.0286 104.909 32.864C104.89 33.0538 104.909 33.2437 104.909 33.4335C104.909 35.0473 104.909 36.6611 104.909 38.2558C104.909 38.4647 104.909 38.6735 104.909 38.9013C104.017 38.9013 103.162 38.9013 102.27 38.9013C102.27 35.5789 102.27 32.2374 102.27 28.877C102.972 28.7631 103.694 28.858 104.415 28.82C104.719 29.2187 104.567 29.7124 104.719 30.168C105.023 30.0161 105.156 29.7883 105.346 29.6174C106.542 28.5922 107.871 28.3264 109.371 28.8011C110.586 29.1998 111.155 30.1111 111.307 31.3261C111.345 31.6299 111.345 31.9337 111.345 32.2564C111.345 34.3069 111.345 36.3763 111.345 38.4267C111.326 38.5786 111.326 38.7115 111.326 38.9013Z" fill="white" fill-opacity="0.82"/>
<path d="M118.294 25.2129C118.294 25.8014 118.294 26.371 118.294 26.9595C117.895 27.0924 117.496 26.9785 117.117 27.0355C116.889 27.1304 116.718 27.2823 116.585 27.5101C116.585 27.9088 116.585 28.3265 116.585 28.8201C117.155 28.8201 117.724 28.8201 118.294 28.8201C118.294 29.5416 118.294 30.2061 118.294 30.9085C117.762 31.0794 117.193 30.9085 116.661 31.0034C116.642 31.0224 116.623 31.0414 116.604 31.0604C116.585 31.0794 116.566 31.0984 116.566 31.1174C116.566 33.6994 116.566 36.2624 116.566 38.8824C116.11 39.0153 115.674 38.9204 115.237 38.9394C114.819 38.9584 114.383 38.9394 113.908 38.9394C113.908 36.2814 113.908 33.6804 113.908 31.0414C113.433 30.9275 112.978 31.0224 112.465 30.9655C112.408 30.282 112.465 29.5795 112.427 28.8391C112.921 28.8391 113.377 28.8391 113.832 28.8391C113.927 28.2126 113.851 27.624 113.965 27.0355C114.212 25.7824 114.819 25.1179 116.072 24.9091C116.851 24.7762 117.591 24.9091 118.294 25.2129Z" fill="white" fill-opacity="0.82"/>
<path d="M122.661 38.9014C121.806 38.9014 120.99 38.9014 120.136 38.9014C120.136 34.2879 120.136 29.6744 120.136 25.042C120.515 24.928 120.952 25.004 121.37 24.985C121.787 24.966 122.205 24.985 122.68 24.985C122.661 29.6364 122.661 34.2309 122.661 38.9014Z" fill="white" fill-opacity="0.82"/>
<path d="M97.2959 28.8391C98.1692 28.8391 99.0236 28.8391 99.8969 28.8391C99.8969 32.1806 99.8969 35.503 99.8969 38.8824C99.4792 38.9964 99.0426 38.9014 98.6059 38.9204C98.1882 38.9394 97.7516 38.9204 97.2959 38.9204C97.2959 35.56 97.2959 32.2375 97.2959 28.8391Z" fill="white" fill-opacity="0.82"/>
<path d="M97.2959 25.0229C98.1882 25.0229 99.0236 25.0229 99.8969 25.0229C99.8969 25.8203 99.8969 26.5798 99.8969 27.3772C99.0236 27.3772 98.1882 27.3772 97.2959 27.3772C97.2959 26.6177 97.2959 25.8583 97.2959 25.0229Z" fill="white" fill-opacity="0.82"/>
<path d="M53.1739 26.6367L42.542 16.0238C39.5803 13.0621 34.7959 13.0621 31.8342 16.0238L21.2213 26.6367C18.2596 29.5984 18.2596 34.3828 21.2213 37.3445L31.8342 47.9764C34.7959 50.9381 39.5803 50.9381 42.542 47.9764L53.1739 37.3445C56.1167 34.4018 56.1167 29.5984 53.1739 26.6367ZM41.7636 41.92H32.7645C29.7078 41.92 27.2397 39.4519 27.2397 36.3952V27.3961C27.2397 24.3394 29.7078 21.8713 32.7645 21.8713H41.7636C43.9659 21.8713 45.8645 23.1623 46.7568 25.0229C46.3201 24.928 45.8455 24.89 45.3899 24.89C41.4788 24.89 38.3272 28.0606 38.3272 31.9526C38.3272 35.8637 41.4978 39.0152 45.3899 39.0152C45.8265 39.0152 46.2632 38.9773 46.6809 38.9013C45.7696 40.686 43.909 41.92 41.7636 41.92Z" fill="white" fill-opacity="0.82"/>
</g>
<defs>
<clipPath id="clip0-247088">
<rect width="131" height="36.3952" fill="white" transform="translate(19 13.8025)"/>
</clipPath>
</defs>
</svg>