<svg width="169" height="64" viewBox="0 0 169 64" fill="none" xmlns="http://www.w3.org/2000/svg">
<path fill-rule="evenodd" clip-rule="evenodd" d="M34.3333 37.3932L32.5642 35.6015C31.8922 36.2284 31.2129 36.7252 30.5258 37.0911C29.8393 37.4567 29.018 37.6394 28.0626 37.6394C27.3159 37.6394 26.6255 37.4941 25.991 37.2029C25.3564 36.9116 24.8077 36.5125 24.3448 36.0046C23.8819 35.497 23.5238 34.9035 23.2697 34.2243C23.0159 33.5451 22.8893 32.8169 22.8893 32.041C22.8893 31.2645 23.0159 30.5403 23.2697 29.8683C23.5238 29.1967 23.8819 28.6108 24.3448 28.1105C24.8077 27.6104 25.3564 27.2149 25.991 26.9236C26.6255 26.6327 27.3159 26.487 28.0626 26.487C28.9582 26.487 29.7571 26.6662 30.4587 27.0246C31.1606 27.3826 31.8251 27.853 32.4518 28.4353L34.2212 26.3976C33.8481 26.0393 33.4525 25.7108 33.0343 25.412C32.6165 25.1135 32.1611 24.8558 31.6683 24.6394C31.1754 24.4228 30.6343 24.2551 30.0445 24.1358C29.4546 24.0161 28.8014 23.9563 28.0849 23.9563C26.8905 23.9563 25.8006 24.1693 24.8152 24.5947C23.8296 25.0201 22.9787 25.6024 22.262 26.3414C21.5453 27.0805 20.9893 27.9425 20.5934 28.9281C20.1976 29.9134 20 30.966 20 32.0858C20 33.2203 20.2015 34.2802 20.6046 35.2658C21.0077 36.2508 21.564 37.1056 22.2732 37.8298C22.9823 38.5537 23.822 39.1248 24.7926 39.543C25.7631 39.9611 26.8234 40.1699 27.9728 40.1699C28.7047 40.1699 29.3727 40.1064 29.9774 39.9795C30.582 39.8526 31.1383 39.6662 31.6459 39.42C32.1535 39.1734 32.6276 38.8822 33.0682 38.5465C33.5084 38.2105 33.9302 37.8259 34.3333 37.3932" fill="white" fill-opacity="0.82"/>
<path fill-rule="evenodd" clip-rule="evenodd" d="M69.8704 28.395C69.8704 27.8735 70.0931 27.4304 70.5387 27.0656C70.9841 26.7003 71.608 26.5179 72.4097 26.5179C73.1226 26.5179 73.8279 26.6559 74.5257 26.9315C75.2238 27.207 75.9291 27.6055 76.6416 28.1267L78.1118 26.0488C77.3103 25.4082 76.4526 24.9205 75.5393 24.5856C74.6258 24.2504 73.5977 24.0828 72.4542 24.0828C71.6822 24.0828 70.9694 24.1907 70.3196 24.4068C69.6663 24.6227 69.1098 24.9316 68.6455 25.3338C68.1815 25.7362 67.8175 26.2164 67.5504 26.775C67.2868 27.3336 67.1531 27.9555 67.1531 28.6407C67.1531 29.3705 67.2682 29.9888 67.4984 30.4952C67.7286 31.0017 68.0664 31.4336 68.5045 31.7912C68.9424 32.1487 69.4881 32.4465 70.1339 32.685C70.7836 32.9234 71.5226 33.139 72.3578 33.3328C73.0856 33.5115 73.6755 33.6828 74.1323 33.8465C74.5852 34.0104 74.9416 34.1856 75.2052 34.3716C75.4648 34.5579 75.6433 34.7626 75.7398 34.9859C75.8362 35.2096 75.8843 35.4625 75.8843 35.7456C75.8843 36.3566 75.6358 36.8408 75.1384 37.198C74.6408 37.5558 73.9688 37.7343 73.1226 37.7343C72.1426 37.7343 71.2663 37.5591 70.4942 37.2091C69.7219 36.8592 68.9574 36.3566 68.1998 35.701L66.5518 37.6673C67.4873 38.5162 68.5045 39.1457 69.6032 39.5553C70.7022 39.965 71.8529 40.1697 73.0556 40.1697C73.8724 40.1697 74.6225 40.0654 75.3055 39.8571C75.9847 39.6482 76.5713 39.3428 77.0539 38.9407C77.5402 38.5385 77.9188 38.0472 78.1935 37.4663C78.4646 36.8854 78.6019 36.2225 78.6019 35.4776C78.6019 34.8223 78.4943 34.2525 78.2788 33.7684C78.0634 33.2843 77.7442 32.8601 77.3286 32.4948C76.9127 32.13 76.3856 31.8207 75.7545 31.5675C75.1237 31.3146 74.3959 31.0837 73.5791 30.8751C72.8329 30.6963 72.2204 30.5248 71.7342 30.3611C71.2515 30.1974 70.8729 30.0186 70.5943 29.8248C70.3196 29.6313 70.1306 29.4227 70.0263 29.1993C69.9227 28.9756 69.8704 28.7076 69.8704 28.395" fill="white" fill-opacity="0.82"/>
<path fill-rule="evenodd" clip-rule="evenodd" d="M100.361 28.6164V39.7897H103.082V24.2095H100.16L95.4083 31.5768L90.6566 24.2095H87.7344V39.7897H90.4559V28.6608L95.3411 35.9615H95.4305L100.361 28.6164" fill="white" fill-opacity="0.82"/>
<path fill-rule="evenodd" clip-rule="evenodd" d="M125.948 32.0857C125.948 32.8471 125.818 33.5674 125.557 34.2469C125.297 34.9261 124.935 35.5156 124.473 36.0156C124.011 36.5157 123.456 36.9115 122.808 37.2028C122.159 37.494 121.448 37.6394 120.673 37.6394C119.898 37.6394 119.183 37.4901 118.527 37.1916C117.871 36.8928 117.308 36.4897 116.839 35.9824C116.37 35.4745 116.005 34.8811 115.744 34.2019C115.483 33.5227 115.353 32.802 115.353 32.0409C115.353 31.2792 115.483 30.5589 115.744 29.8797C116.005 29.2002 116.366 28.6107 116.828 28.1104C117.29 27.6103 117.845 27.2148 118.493 26.9236C119.142 26.6326 119.853 26.487 120.628 26.487C121.403 26.487 122.119 26.6362 122.774 26.935C123.43 27.2336 123.992 27.6366 124.462 28.1442C124.931 28.6515 125.297 29.2452 125.557 29.9244C125.818 30.6037 125.948 31.3243 125.948 32.0857ZM128.832 32.041C128.832 30.9361 128.631 29.891 128.229 28.9054C127.827 27.9204 127.267 27.0617 126.552 26.3302C125.837 25.5984 124.98 25.0201 123.981 24.5947C122.983 24.1693 121.88 23.9563 120.673 23.9563C119.466 23.9563 118.363 24.1729 117.365 24.6059C116.366 25.0389 115.502 25.6247 114.772 26.3638C114.041 27.1028 113.475 27.9651 113.073 28.9504C112.67 29.9357 112.469 30.9808 112.469 32.0858C112.469 33.1904 112.67 34.2352 113.073 35.2208C113.475 36.2064 114.034 37.0648 114.749 37.7963C115.464 38.5277 116.322 39.1064 117.32 39.5318C118.318 39.9572 119.421 40.1699 120.628 40.1699C121.835 40.1699 122.938 39.9533 123.937 39.5206C124.935 39.0876 125.8 38.5018 126.53 37.7624C127.26 37.0237 127.827 36.1614 128.229 35.1761C128.631 34.1908 128.832 33.1457 128.832 32.041V32.041Z" fill="white" fill-opacity="0.82"/>
<path fill-rule="evenodd" clip-rule="evenodd" d="M140.268 28.395C140.268 27.8735 140.491 27.4304 140.936 27.0656C141.382 26.7003 142.006 26.5179 142.808 26.5179C143.52 26.5179 144.226 26.6559 144.924 26.9315C145.621 27.207 146.327 27.6055 147.04 28.1267L148.51 26.0488C147.708 25.4082 146.85 24.9205 145.937 24.5856C145.024 24.2504 143.996 24.0828 142.852 24.0828C142.08 24.0828 141.367 24.1907 140.718 24.4068C140.064 24.6227 139.508 24.9316 139.043 25.3338C138.579 25.7362 138.216 26.2164 137.948 26.775C137.685 27.3336 137.551 27.9555 137.551 28.6407C137.551 29.3705 137.666 29.9888 137.896 30.4952C138.127 31.0017 138.464 31.4336 138.902 31.7912C139.34 32.1487 139.886 32.4465 140.532 32.685C141.182 32.9234 141.921 33.139 142.756 33.3328C143.483 33.5115 144.073 33.6828 144.53 33.8465C144.983 34.0104 145.34 34.1856 145.603 34.3716C145.863 34.5579 146.041 34.7626 146.138 34.9859C146.234 35.2096 146.283 35.4625 146.283 35.7456C146.283 36.3566 146.033 36.8408 145.536 37.198C145.039 37.5558 144.367 37.7343 143.52 37.7343C142.54 37.7343 141.664 37.5591 140.892 37.2091C140.12 36.8592 139.355 36.3566 138.598 35.701L136.95 37.6673C137.885 38.5162 138.902 39.1457 140.001 39.5553C141.1 39.965 142.251 40.1697 143.454 40.1697C144.27 40.1697 145.02 40.0654 145.703 39.8571C146.383 39.6482 146.969 39.3428 147.452 38.9407C147.938 38.5385 148.317 38.0472 148.591 37.4663C148.862 36.8854 149 36.2225 149 35.4776C149 34.8223 148.892 34.2525 148.677 33.7684C148.461 33.2843 148.142 32.8601 147.726 32.4948C147.311 32.13 146.784 31.8207 146.152 31.5675C145.521 31.3146 144.794 31.0837 143.977 30.8751C143.231 30.6963 142.618 30.5248 142.132 30.3611C141.649 30.1974 141.271 30.0186 140.992 29.8248C140.718 29.6313 140.528 29.4227 140.424 29.1993C140.321 28.9756 140.268 28.7076 140.268 28.395" fill="white" fill-opacity="0.82"/>
<path fill-rule="evenodd" clip-rule="evenodd" d="M53.0025 27.3285L45.5455 34.7756C45.4493 34.5893 45.3625 34.3951 45.2847 34.1938C45.0243 33.5171 44.8941 32.7992 44.8941 32.041C44.8941 31.2822 45.0243 30.5646 45.2847 29.8879C45.5455 29.211 45.9065 28.6237 46.3683 28.1253C46.8301 27.6271 47.385 27.2331 48.0327 26.9429C48.6808 26.6531 49.3918 26.508 50.1662 26.508C50.9408 26.508 51.6558 26.6567 52.3108 26.9544C52.5543 27.0648 52.7849 27.1895 53.0025 27.3285ZM52.3445 37.1833C51.6965 37.4735 50.9854 37.6183 50.2111 37.6183C49.4364 37.6183 48.7215 37.4696 48.0662 37.1722C47.823 37.0614 47.5924 36.9368 47.3751 36.7974L54.8318 29.351C54.928 29.537 55.0148 29.7308 55.0925 29.9325C55.353 30.6091 55.4832 31.327 55.4832 32.0856C55.4832 32.8441 55.353 33.5617 55.0925 34.2386C54.8318 34.9153 54.4707 35.5025 54.0089 36.0007C53.5472 36.4988 52.9926 36.8932 52.3445 37.1833ZM53.4727 39.4923C54.4707 39.061 55.3346 38.4773 56.0643 37.7408C56.794 37.0048 57.3598 36.1458 57.7619 35.1642C58.1643 34.1826 58.3653 33.1415 58.3653 32.041C58.3653 30.9403 58.1643 29.8991 57.7619 28.9172C57.5235 28.3351 57.2299 27.7975 56.8814 27.3042L61.7315 22.4607L59.8043 20.5361L54.9394 25.3943C54.5027 25.0969 54.0285 24.8399 53.5173 24.6228C52.5193 24.199 51.4173 23.9868 50.2111 23.9868C49.0045 23.9868 47.9025 24.2026 46.9045 24.634C45.9065 25.0653 45.0427 25.6489 44.3129 26.3852C43.5832 27.1214 43.0171 27.9805 42.6151 28.9621C42.213 29.9436 42.0119 30.9848 42.0119 32.0856C42.0119 33.186 42.213 34.2269 42.6151 35.2088C42.8538 35.7912 43.1474 36.3288 43.4958 36.8224L38.646 41.6652L40.5733 43.5898L45.4378 38.732C45.8746 39.0294 46.3487 39.2864 46.8599 39.5034C47.8579 39.9273 48.9599 40.1392 50.1662 40.1392C51.3727 40.1392 52.4747 39.9233 53.4727 39.4923V39.4923Z" fill="white" fill-opacity="0.82"/>
</svg>