<svg width="169" height="64" viewBox="0 0 169 64" fill="none" xmlns="http://www.w3.org/2000/svg">
<path d="M39.8835 24.887V29.8517H48.2195V32.9078H39.8835V40.3537H36.542V21.8284H49.227V24.8844H39.8835V24.887Z" fill="white" fill-opacity="0.82" stroke="white" stroke-opacity="0.82" stroke-width="0.188931" stroke-miterlimit="10"/>
<path d="M51.6875 40.3537V26.7676H54.9758V40.3537H51.6875Z" fill="white" fill-opacity="0.82" stroke="white" stroke-opacity="0.82" stroke-width="0.188931" stroke-miterlimit="10"/>
<path d="M70.3744 42.1578C70.3744 43.0469 70.177 43.7854 69.7795 44.3782C69.3821 44.971 68.8733 45.4361 68.253 45.7759C67.6328 46.1158 66.9316 46.356 66.157 46.494C65.3798 46.6345 64.6204 46.7035 63.8787 46.7035C63.0509 46.7035 62.2257 46.6422 61.408 46.5195C60.5879 46.3968 59.8259 46.0851 59.1171 45.5791C58.6007 45.2138 58.1982 44.7871 57.9146 44.299C57.6312 43.811 57.4868 43.2463 57.4868 42.5998C57.4868 42.007 57.6261 41.4627 57.902 40.967C58.1779 40.4713 58.5754 40.0931 59.0918 39.83C58.6614 39.5872 58.3273 39.2499 58.0944 38.8232C57.8615 38.3964 57.745 37.957 57.745 37.5021C57.745 36.3344 58.2792 35.4222 59.35 34.7578C58.9348 34.3388 58.6082 33.8533 58.3678 33.2937C58.1247 32.7367 58.0058 32.1106 58.0058 31.4131C58.0058 30.6107 58.1526 29.8978 58.4463 29.2692C58.7399 28.6406 59.1373 28.1194 59.6386 27.7004C60.1398 27.2812 60.722 26.9644 61.3852 26.7472C62.0485 26.53 62.7598 26.4202 63.5192 26.4202C64.0711 26.4202 64.6078 26.4943 65.1242 26.6425C65.6406 26.7907 66.1241 26.9951 66.5747 27.2557C66.8683 26.6629 67.2556 26.2336 67.7391 25.9628C68.2227 25.6919 68.7492 25.5591 69.3188 25.5591C69.4226 25.5591 69.5694 25.5591 69.7593 25.5591C69.9491 25.5591 70.0959 25.5769 70.1997 25.6102V28.1449L69.9415 28.1194C69.5618 28.1194 69.2201 28.1807 68.9188 28.3033C68.6176 28.426 68.4125 28.6534 68.3113 28.983C68.7771 29.7496 69.01 30.5673 69.01 31.4386C69.01 32.2231 68.8581 32.9206 68.5568 33.5288C68.2556 34.1394 67.8531 34.6531 67.3544 35.0696C66.8531 35.4886 66.2709 35.8106 65.6077 36.0355C64.9419 36.2629 64.2483 36.3752 63.5243 36.3752C62.7649 36.3752 62.0409 36.2527 61.3498 36.0099C61.1954 36.0968 61.0435 36.2246 60.8967 36.3881C60.7499 36.5541 60.6764 36.7509 60.6764 36.9757C60.6764 37.377 60.836 37.6427 61.1549 37.773C61.4739 37.9033 61.8055 37.9698 62.1523 37.9698H64.3774C64.704 37.9698 65.0584 37.9748 65.4381 37.9825C65.8178 37.9927 66.2026 38.026 66.5899 38.0873C66.9772 38.1486 67.3569 38.2406 67.729 38.3607C68.1011 38.4833 68.4404 38.6571 68.7517 38.882C69.339 39.2831 69.7567 39.7635 70.0073 40.318C70.2503 40.8853 70.3744 41.496 70.3744 42.1578ZM67.3214 42.237C67.3214 41.8179 67.2101 41.496 66.9848 41.2711C66.7595 41.0437 66.4886 40.8801 66.1696 40.7754C65.8507 40.6706 65.5039 40.6093 65.1343 40.5939C64.7622 40.5761 64.423 40.5684 64.1116 40.5684H61.5751C61.2283 40.6731 60.9397 40.8699 60.7068 41.1561C60.474 41.4448 60.3575 41.8051 60.3575 42.2395C60.3575 42.6739 60.474 43.0138 60.7068 43.2591C60.9397 43.5018 61.2283 43.6909 61.5751 43.8212C61.9194 43.9515 62.2915 44.0333 62.6889 44.0691C63.0864 44.1048 63.4408 44.1201 63.7496 44.1201C64.0761 44.1201 64.4483 44.1074 64.8635 44.0818C65.2786 44.0563 65.6659 43.9821 66.0279 43.8595C66.3899 43.7368 66.6962 43.5503 66.9468 43.2974C67.1949 43.0419 67.3214 42.6893 67.3214 42.237ZM65.8963 31.4181C65.8963 30.6874 65.6836 30.0818 65.2609 29.6014C64.8381 29.121 64.2559 28.8834 63.5142 28.8834C62.7725 28.8834 62.1902 29.1236 61.7675 29.6014C61.3447 30.0792 61.1321 30.6848 61.1321 31.4181C61.1321 32.1489 61.3422 32.752 61.7675 33.2221C62.1902 33.6923 62.7725 33.9274 63.5142 33.9274C64.2559 33.9274 64.8381 33.6923 65.2609 33.2221C65.6861 32.752 65.8963 32.1515 65.8963 31.4181Z" fill="white" fill-opacity="0.82" stroke="white" stroke-opacity="0.82" stroke-width="0.188931" stroke-miterlimit="10"/>
<path d="M88.1325 40.3538V31.914C88.1325 31.0784 87.9907 30.4293 87.7047 29.9668C87.4211 29.5069 86.8718 29.2744 86.0617 29.2744C85.596 29.2744 85.1985 29.3842 84.872 29.6014C84.5455 29.8186 84.272 30.1074 84.0569 30.4626C83.8417 30.8203 83.6822 31.2164 83.5784 31.6507C83.4747 32.0877 83.424 32.5118 83.424 32.9309V40.3513H80.2142V31.914C80.2142 31.0784 80.0724 30.4293 79.7863 29.9668C79.5028 29.5069 78.9535 29.2744 78.1434 29.2744C77.6776 29.2744 77.2802 29.3842 76.9537 29.6014C76.6271 29.8186 76.3486 30.1074 76.1258 30.4626C75.9006 30.8203 75.7385 31.2164 75.6348 31.6507C75.531 32.0877 75.4804 32.5118 75.4804 32.9309V40.3513H72.2705V26.7677H74.9614L75.2196 28.5717C75.5993 27.9456 76.1082 27.4321 76.7461 27.0309C77.384 26.6297 78.1535 26.4304 79.0497 26.4304C79.9989 26.4304 80.7938 26.6272 81.4318 27.0181C82.0697 27.4091 82.5633 27.9559 82.9076 28.6509C83.305 27.938 83.8518 27.3886 84.5505 27.0054C85.2492 26.6221 86.0567 26.4304 86.9706 26.4304C88.421 26.4304 89.5121 26.8699 90.2463 27.7515C90.9804 28.6331 91.3474 29.7752 91.3474 31.1882V40.3589H88.1325V40.3538Z" fill="white" fill-opacity="0.82" stroke="white" stroke-opacity="0.82" stroke-width="0.188931" stroke-miterlimit="10"/>
<path d="M106.045 33.6666C106.027 33.7893 106.02 33.9016 106.02 34.0065V34.5813H97.013C97.013 35.1052 97.0939 35.6009 97.2585 36.071C97.4231 36.5412 97.6712 36.9322 97.9951 37.2465C98.2382 37.4739 98.5192 37.668 98.8382 37.8341C99.1571 38.0002 99.5393 38.082 99.9899 38.082C100.456 38.082 100.841 38.0334 101.142 37.9389C101.443 37.8443 101.716 37.6732 101.957 37.4304C102.266 37.1161 102.483 36.7328 102.605 36.2806H105.711C105.676 36.6817 105.541 37.1213 105.309 37.6016C105.076 38.082 104.83 38.4755 104.572 38.7898C104.002 39.4695 103.321 39.9576 102.526 40.254C101.732 40.5504 100.904 40.6986 100.043 40.6986C99.109 40.6986 98.304 40.5452 97.623 40.2412C96.9395 39.9371 96.332 39.5308 95.7979 39.0274C95.1245 38.3656 94.6106 37.5735 94.2563 36.6511C93.9018 35.7287 93.7246 34.7091 93.7246 33.595C93.7246 32.4989 93.8841 31.4819 94.2031 30.5517C94.5221 29.6191 95.0106 28.8245 95.6637 28.1601C96.1649 27.6388 96.7725 27.2197 97.4889 26.9055C98.2053 26.5912 99.028 26.4353 99.9621 26.4353C100.965 26.4353 101.894 26.6397 102.759 27.0486C103.62 27.4574 104.329 28.0885 104.883 28.942C105.382 29.6907 105.701 30.4547 105.84 31.2289C105.974 31.998 106.045 32.8132 106.045 33.6666ZM102.81 32.2025C102.79 31.211 102.514 30.4163 101.98 29.8261C101.757 29.5834 101.476 29.3917 101.139 29.2511C100.803 29.1132 100.403 29.0416 99.9342 29.0416C99.4355 29.0416 98.9951 29.1388 98.6129 29.3304C98.2357 29.522 97.9218 29.775 97.6813 30.0893C97.4382 30.3857 97.2661 30.7 97.1623 31.0296C97.0611 31.3592 96.9978 31.7527 96.9826 32.205H102.81V32.2025Z" fill="white" fill-opacity="0.82" stroke="white" stroke-opacity="0.82" stroke-width="0.188931" stroke-miterlimit="10"/>
<path d="M116.788 40.3538V32.0186C116.788 31.2189 116.631 30.5903 116.323 30.138C116.011 29.6857 115.427 29.4583 114.563 29.4583C113.994 29.4583 113.518 29.6193 113.138 29.9412C112.758 30.2632 112.457 30.6772 112.232 31.1831C112.007 31.6891 111.878 32.2767 111.844 32.9462C111.809 33.6182 111.791 34.2391 111.791 34.8141V40.3538H108.556V26.7677H111.275L111.508 28.518C111.906 27.8051 112.47 27.2762 113.204 26.9363C113.938 26.5965 114.693 26.4253 115.467 26.4253C116.194 26.4253 116.837 26.5479 117.396 26.7907C117.955 27.036 118.431 27.3707 118.821 27.7975C119.208 28.2241 119.507 28.7377 119.715 29.3382C119.922 29.9387 120.026 30.5878 120.026 31.2853V40.3512H116.788V40.3538Z" fill="white" fill-opacity="0.82" stroke="white" stroke-opacity="0.82" stroke-width="0.188931" stroke-miterlimit="10"/>
<path d="M130.947 40.1723C130.015 40.415 129.091 40.5377 128.177 40.5377C126.813 40.5377 125.795 40.1671 125.122 39.4261C124.448 38.6852 124.112 37.663 124.112 36.3574V29.4583H121.651V26.7676H124.112V23.3181L127.347 22.5081V26.7676H130.739V29.4583H127.347V36.0686C127.347 36.5924 127.466 36.9706 127.709 37.2057C127.952 37.4408 128.332 37.5583 128.848 37.5583C129.192 37.5583 129.516 37.5507 129.818 37.5328C130.119 37.5148 130.493 37.4817 130.944 37.428V40.1723H130.947Z" fill="white" fill-opacity="0.82" stroke="white" stroke-opacity="0.82" stroke-width="0.188931" stroke-miterlimit="10"/>
<path fill-rule="evenodd" clip-rule="evenodd" d="M55.2439 23.755C55.2439 22.7381 54.4288 21.8438 53.3251 21.8438C52.1986 21.8438 51.4062 22.7381 51.4062 23.755C51.4062 24.8205 52.1986 25.6178 53.3251 25.6178C54.4288 25.6178 55.2439 24.8205 55.2439 23.755Z" fill="white" fill-opacity="0.82"/>
</svg>