<svg width="169" height="64" viewBox="0 0 169 64" fill="none" xmlns="http://www.w3.org/2000/svg">
<path d="M19.3476 42.9752C17.0528 42.9752 14.9825 41.5949 14.1025 39.4728C13.2226 37.3506 13.7057 34.9093 15.3361 33.2875L22.8931 25.7305L24.1181 26.9554L16.5698 34.5124C15.5432 35.5045 15.1291 36.971 15.4914 38.3513C15.8537 39.7316 16.9321 40.8099 18.3123 41.1722C19.6926 41.5345 21.1591 41.1204 22.1512 40.1025C22.1685 40.0853 22.8758 39.3778 22.8758 39.3778L24.1009 40.6028L23.3762 41.3361C22.2978 42.3799 20.8572 42.9752 19.3476 42.9752Z" fill="white" fill-opacity="0.82"/>
<path d="M29.6998 31.4392L22.1428 23.8822C21.1421 22.8901 19.6929 22.5019 18.3299 22.8642C16.9668 23.2265 15.9057 24.2962 15.5348 25.6506C15.1725 27.0136 15.5607 28.4629 16.5528 29.4636L17.2774 30.1883L16.0525 31.4132L15.3277 30.6886C13.8957 29.2565 13.335 27.1603 13.8612 25.2021C14.3875 23.2438 15.9144 21.7082 17.8727 21.1906C19.8309 20.673 21.9271 21.2251 23.3592 22.6572L30.9248 30.2141L29.6998 31.4392Z" fill="white" fill-opacity="0.82"/>
<path d="M26.4471 38.2706L25.2222 37.0542L32.7792 29.4972C34.2802 27.9531 34.2542 25.4859 32.7359 23.9589C31.209 22.432 28.7504 22.4148 27.1976 23.9158L26.473 24.6404L25.248 23.4155L25.9726 22.6908C27.4047 21.2588 29.501 20.698 31.4593 21.2243C33.4174 21.7505 34.953 23.2774 35.4706 25.2357C35.9968 27.1939 35.4361 29.2902 34.0041 30.7222L26.4471 38.2706Z" fill="white" fill-opacity="0.82"/>
<path d="M29.9853 42.9998C28.4757 43.0085 27.0351 42.4047 25.974 41.3349L18.417 33.7779L19.642 32.553L27.1989 40.11C28.7431 41.6541 31.2362 41.6541 32.7804 40.11C34.3245 38.5658 34.3245 36.0727 32.7804 34.5285L32.0558 33.8039L33.2807 32.5788L34.0054 33.3036C35.6272 34.9254 36.1189 37.3667 35.239 39.4889C34.3504 41.611 32.2801 42.9998 29.9853 42.9998Z" fill="white" fill-opacity="0.82"/>
<mask id="path-5-outside-1-403719-949878-332945-629019-743042-361011-303350-951361-590381-417050" maskUnits="userSpaceOnUse" x="43.6226" y="24.3997" width="113" height="15" fill="black">
<rect fill="white" x="43.6226" y="24.3997" width="113" height="15"/>
<path d="M45.96 38.0353V25.5052H44.6226V38.0353H45.96Z"/>
<path d="M60.254 38.0353V25.5052H58.9165V35.5188L52.2643 25.5052H50.9972V38.0353H52.3347V27.9866L58.9869 38.0353H60.254Z"/>
<path d="M72.5979 26.7019V25.5052H64.0098V26.7019H67.6351V38.0353H68.9726V26.7019H72.5979Z"/>
<path d="M84.1223 38.0353V36.8386H77.6812V32.3158H83.1719V31.1192H77.6812V26.7019H84.1223V25.5052H76.3437V38.0353H84.1223Z"/>
<path d="M97.0678 38.0353L94.0937 32.351C95.7127 32.0167 96.8214 30.82 96.8214 28.9897C96.8214 26.8251 95.2904 25.5052 93.1082 25.5052H88.3038V38.0353H89.6413V32.4742H92.6506L95.5016 38.0353H97.0678ZM95.484 29.0073C95.484 30.5384 94.4457 31.2951 92.985 31.2951H89.6413V26.7019H92.985C94.4457 26.7019 95.484 27.4763 95.484 29.0073Z"/>
<path d="M109.514 34.4101H108.177C107.842 35.9411 106.734 36.9442 105.168 36.9442C104.34 36.9442 103.548 36.6275 103.003 36.0643C102.211 35.2548 102.123 34.3925 102.123 31.7703C102.123 29.1481 102.211 28.2858 103.003 27.4763C103.548 26.9131 104.34 26.5964 105.168 26.5964C106.734 26.5964 107.807 27.5995 108.142 29.1305H109.514C109.092 26.7723 107.42 25.3997 105.168 25.3997C103.936 25.3997 102.809 25.8572 101.965 26.7019C100.785 27.881 100.785 29.1129 100.785 31.7703C100.785 34.4277 100.785 35.6595 101.965 36.8386C102.809 37.6834 103.936 38.1409 105.168 38.1409C107.403 38.1409 109.11 36.7682 109.514 34.4101Z"/>
<path d="M122.497 38.0353V25.5052H121.16V31.1192H115.211V25.5052H113.874V38.0353H115.211V32.3158H121.16V38.0353H122.497Z"/>
<path d="M136.264 38.0353L131.671 25.5052H130.545L125.934 38.0353H127.359L128.362 35.202H133.835L134.839 38.0353H136.264ZM133.448 34.0405H128.767L131.125 27.4235L133.448 34.0405Z"/>
<path d="M141.039 38.0353V25.5052H139.702V38.0353H141.039Z"/>
<path d="M155.333 38.0353V25.5052H153.995V35.5188L147.343 25.5052H146.076V38.0353H147.414V27.9866L154.066 38.0353H155.333Z"/>
</mask>
<path d="M45.96 38.0353V25.5052H44.6226V38.0353H45.96Z" fill="white" fill-opacity="0.82"/>
<path d="M60.254 38.0353V25.5052H58.9165V35.5188L52.2643 25.5052H50.9972V38.0353H52.3347V27.9866L58.9869 38.0353H60.254Z" fill="white" fill-opacity="0.82"/>
<path d="M72.5979 26.7019V25.5052H64.0098V26.7019H67.6351V38.0353H68.9726V26.7019H72.5979Z" fill="white" fill-opacity="0.82"/>
<path d="M84.1223 38.0353V36.8386H77.6812V32.3158H83.1719V31.1192H77.6812V26.7019H84.1223V25.5052H76.3437V38.0353H84.1223Z" fill="white" fill-opacity="0.82"/>
<path d="M97.0678 38.0353L94.0937 32.351C95.7127 32.0167 96.8214 30.82 96.8214 28.9897C96.8214 26.8251 95.2904 25.5052 93.1082 25.5052H88.3038V38.0353H89.6413V32.4742H92.6506L95.5016 38.0353H97.0678ZM95.484 29.0073C95.484 30.5384 94.4457 31.2951 92.985 31.2951H89.6413V26.7019H92.985C94.4457 26.7019 95.484 27.4763 95.484 29.0073Z" fill="white" fill-opacity="0.82"/>
<path d="M109.514 34.4101H108.177C107.842 35.9411 106.734 36.9442 105.168 36.9442C104.34 36.9442 103.548 36.6275 103.003 36.0643C102.211 35.2548 102.123 34.3925 102.123 31.7703C102.123 29.1481 102.211 28.2858 103.003 27.4763C103.548 26.9131 104.34 26.5964 105.168 26.5964C106.734 26.5964 107.807 27.5995 108.142 29.1305H109.514C109.092 26.7723 107.42 25.3997 105.168 25.3997C103.936 25.3997 102.809 25.8572 101.965 26.7019C100.785 27.881 100.785 29.1129 100.785 31.7703C100.785 34.4277 100.785 35.6595 101.965 36.8386C102.809 37.6834 103.936 38.1409 105.168 38.1409C107.403 38.1409 109.11 36.7682 109.514 34.4101Z" fill="white" fill-opacity="0.82"/>
<path d="M122.497 38.0353V25.5052H121.16V31.1192H115.211V25.5052H113.874V38.0353H115.211V32.3158H121.16V38.0353H122.497Z" fill="white" fill-opacity="0.82"/>
<path d="M136.264 38.0353L131.671 25.5052H130.545L125.934 38.0353H127.359L128.362 35.202H133.835L134.839 38.0353H136.264ZM133.448 34.0405H128.767L131.125 27.4235L133.448 34.0405Z" fill="white" fill-opacity="0.82"/>
<path d="M141.039 38.0353V25.5052H139.702V38.0353H141.039Z" fill="white" fill-opacity="0.82"/>
<path d="M155.333 38.0353V25.5052H153.995V35.5188L147.343 25.5052H146.076V38.0353H147.414V27.9866L154.066 38.0353H155.333Z" fill="white" fill-opacity="0.82"/>
<path d="M45.96 38.0353V25.5052H44.6226V38.0353H45.96Z" stroke="white" stroke-opacity="0.82" mask="url(#path-5-outside-1-403719-949878-332945-629019-743042-361011-303350-951361-590381-417050)"/>
<path d="M60.254 38.0353V25.5052H58.9165V35.5188L52.2643 25.5052H50.9972V38.0353H52.3347V27.9866L58.9869 38.0353H60.254Z" stroke="white" stroke-opacity="0.82" mask="url(#path-5-outside-1-403719-949878-332945-629019-743042-361011-303350-951361-590381-417050)"/>
<path d="M72.5979 26.7019V25.5052H64.0098V26.7019H67.6351V38.0353H68.9726V26.7019H72.5979Z" stroke="white" stroke-opacity="0.82" mask="url(#path-5-outside-1-403719-949878-332945-629019-743042-361011-303350-951361-590381-417050)"/>
<path d="M84.1223 38.0353V36.8386H77.6812V32.3158H83.1719V31.1192H77.6812V26.7019H84.1223V25.5052H76.3437V38.0353H84.1223Z" stroke="white" stroke-opacity="0.82" mask="url(#path-5-outside-1-403719-949878-332945-629019-743042-361011-303350-951361-590381-417050)"/>
<path d="M97.0678 38.0353L94.0937 32.351C95.7127 32.0167 96.8214 30.82 96.8214 28.9897C96.8214 26.8251 95.2904 25.5052 93.1082 25.5052H88.3038V38.0353H89.6413V32.4742H92.6506L95.5016 38.0353H97.0678ZM95.484 29.0073C95.484 30.5384 94.4457 31.2951 92.985 31.2951H89.6413V26.7019H92.985C94.4457 26.7019 95.484 27.4763 95.484 29.0073Z" stroke="white" stroke-opacity="0.82" mask="url(#path-5-outside-1-403719-949878-332945-629019-743042-361011-303350-951361-590381-417050)"/>
<path d="M109.514 34.4101H108.177C107.842 35.9411 106.734 36.9442 105.168 36.9442C104.34 36.9442 103.548 36.6275 103.003 36.0643C102.211 35.2548 102.123 34.3925 102.123 31.7703C102.123 29.1481 102.211 28.2858 103.003 27.4763C103.548 26.9131 104.34 26.5964 105.168 26.5964C106.734 26.5964 107.807 27.5995 108.142 29.1305H109.514C109.092 26.7723 107.42 25.3997 105.168 25.3997C103.936 25.3997 102.809 25.8572 101.965 26.7019C100.785 27.881 100.785 29.1129 100.785 31.7703C100.785 34.4277 100.785 35.6595 101.965 36.8386C102.809 37.6834 103.936 38.1409 105.168 38.1409C107.403 38.1409 109.11 36.7682 109.514 34.4101Z" stroke="white" stroke-opacity="0.82" mask="url(#path-5-outside-1-403719-949878-332945-629019-743042-361011-303350-951361-590381-417050)"/>
<path d="M122.497 38.0353V25.5052H121.16V31.1192H115.211V25.5052H113.874V38.0353H115.211V32.3158H121.16V38.0353H122.497Z" stroke="white" stroke-opacity="0.82" mask="url(#path-5-outside-1-403719-949878-332945-629019-743042-361011-303350-951361-590381-417050)"/>
<path d="M136.264 38.0353L131.671 25.5052H130.545L125.934 38.0353H127.359L128.362 35.202H133.835L134.839 38.0353H136.264ZM133.448 34.0405H128.767L131.125 27.4235L133.448 34.0405Z" stroke="white" stroke-opacity="0.82" mask="url(#path-5-outside-1-403719-949878-332945-629019-743042-361011-303350-951361-590381-417050)"/>
<path d="M141.039 38.0353V25.5052H139.702V38.0353H141.039Z" stroke="white" stroke-opacity="0.82" mask="url(#path-5-outside-1-403719-949878-332945-629019-743042-361011-303350-951361-590381-417050)"/>
<path d="M155.333 38.0353V25.5052H153.995V35.5188L147.343 25.5052H146.076V38.0353H147.414V27.9866L154.066 38.0353H155.333Z" stroke="white" stroke-opacity="0.82" mask="url(#path-5-outside-1-403719-949878-332945-629019-743042-361011-303350-951361-590381-417050)"/>
</svg>