<svg width="169" height="64" viewBox="0 0 169 64" fill="none" xmlns="http://www.w3.org/2000/svg">
<g clip-path="url(#clip0-815888)">
<path d="M37 20.8096C37.0086 20.534 37.0768 20.2635 37.2002 20.0169C37.3235 19.7702 37.4989 19.5533 37.7143 19.3811C37.9075 19.2088 38.1339 19.0777 38.3795 18.9958C38.6251 18.9139 38.8849 18.883 39.1429 18.9049C39.4008 18.883 39.6606 18.9139 39.9062 18.9958C40.1518 19.0777 40.3782 19.2088 40.5714 19.3811C40.7437 19.5743 40.8748 19.8007 40.9567 20.0463C41.0386 20.2919 41.0695 20.5517 41.0476 20.8096C41.0695 21.0676 41.0386 21.3274 40.9567 21.573C40.8748 21.8186 40.7437 22.045 40.5714 22.2382C40.3992 22.4536 40.1823 22.629 39.9356 22.7523C39.689 22.8756 39.4185 22.9439 39.1429 22.9525C38.5745 22.9525 38.0295 22.7267 37.6276 22.3249C37.2258 21.923 37 21.378 37 20.8096V20.8096ZM40.5714 26.5239V40.0954H37.4762V26.5239H40.5714ZM54.619 47.4763V38.6668C53.3492 39.9366 51.9206 40.5715 50.3333 40.5715C49.4689 40.5643 48.6165 40.3688 47.8352 39.9988C47.054 39.6287 46.3627 39.0929 45.8095 38.4287C44.5397 37.1588 43.9048 35.4922 43.9048 33.4287C43.9048 31.3652 44.5397 29.6192 45.8095 28.1906C46.3627 27.5263 47.054 26.9906 47.8352 26.6205C48.6165 26.2505 49.4689 26.055 50.3333 26.0477C51.9206 26.0477 53.3492 26.6827 54.619 27.9525V26.5239H57.7143V47.4763H54.619ZM47.2381 33.1906C47.2381 34.4604 47.5556 35.5715 48.1905 36.5239C48.5104 36.9053 48.9117 37.2103 49.365 37.4163C49.8182 37.6223 50.3118 37.7241 50.8095 37.7144C51.3446 37.743 51.8792 37.6508 52.3738 37.4448C52.8684 37.2387 53.3102 36.924 53.6667 36.5239C54.4603 35.7303 54.8571 34.6985 54.8571 33.4287C54.8571 32.1588 54.4603 31.0477 53.6667 30.0954C53.3365 29.7262 52.9332 29.4297 52.4823 29.2247C52.0314 29.0198 51.5429 28.9109 51.0476 28.9049C50.5126 28.8763 49.978 28.9684 49.4834 29.1745C48.9888 29.3806 48.5469 29.6953 48.1905 30.0954C47.5019 30.9742 47.1627 32.0767 47.2381 33.1906ZM64.8571 16.5239V40.0954H61.7619V16.5239H64.8571ZM72 26.5239V34.3811C72 36.6033 72.873 37.7144 74.619 37.7144C76.3651 37.7144 77.2381 36.6033 77.2381 34.3811V26.5239H80.3333V34.3811C80.4105 35.3401 80.3301 36.3052 80.0952 37.2382C79.788 37.9839 79.2965 38.6393 78.6667 39.143C77.5556 40.0954 76.2063 40.5715 74.619 40.5715C73.0317 40.5715 71.6825 40.0954 70.5714 39.143C69.9416 38.6393 69.4501 37.9839 69.1429 37.2382L68.9048 34.3811V26.5239H72ZM92.2381 28.9049L89.619 30.0954C89.3016 29.3017 88.8254 28.9049 88.1905 28.9049C88.0615 28.8939 87.9316 28.9094 87.8088 28.9503C87.686 28.9913 87.5728 29.0568 87.4762 29.143C87.39 29.2396 87.3245 29.3528 87.2836 29.4756C87.2426 29.5984 87.2272 29.7283 87.2381 29.8573C87.2381 30.4922 87.7937 31.0477 88.9048 31.5239C90.6508 32.1588 91.7619 32.7938 92.2381 33.4287C92.7143 34.0636 93.0317 34.9366 93.1905 36.0477C93.1768 36.6339 93.0429 37.2111 92.7972 37.7435C92.5515 38.2759 92.1991 38.7522 91.7619 39.143C90.8687 40.0195 89.6793 40.5293 88.4286 40.5715C86.0476 40.5715 84.381 39.4604 83.4286 37.2382L86.0476 35.8096C86.2913 36.3311 86.6124 36.8127 87 37.2382C87.1933 37.4105 87.4196 37.5416 87.6652 37.6235C87.9109 37.7053 88.1706 37.7363 88.4286 37.7144C89.381 37.7144 89.8571 37.2382 89.8571 36.2858C89.8571 35.5715 89.619 35.0954 88.6667 34.6192L87.7143 34.143L86.7619 33.6668L84.8571 32.4763C84.321 31.8044 84.065 30.9514 84.1429 30.0954C84.1303 29.5623 84.2298 29.0326 84.4348 28.5404C84.6399 28.0483 84.946 27.6046 85.3333 27.2382C85.7443 26.8441 86.2297 26.5359 86.7611 26.3315C87.2926 26.1271 87.8594 26.0306 88.4286 26.0477C90.1746 26.0477 91.4444 27.0001 92.2381 28.9049ZM95.5714 20.8096C95.5495 20.5517 95.5805 20.2919 95.6624 20.0463C95.7442 19.8007 95.8753 19.5743 96.0476 19.3811C96.4405 19.0297 96.9491 18.8354 97.4762 18.8354C98.0033 18.8354 98.5119 19.0297 98.9048 19.3811C99.1201 19.5533 99.2955 19.7702 99.4189 20.0169C99.5422 20.2635 99.6105 20.534 99.619 20.8096C99.6105 21.0853 99.5422 21.3558 99.4189 21.6024C99.2955 21.8491 99.1201 22.066 98.9048 22.2382C98.7325 22.4536 98.5156 22.629 98.269 22.7523C98.0223 22.8756 97.7518 22.9439 97.4762 22.9525C96.9501 22.8937 96.4644 22.6422 96.1127 22.2465C95.7609 21.8509 95.5682 21.339 95.5714 20.8096ZM99.1429 26.5239V40.0954H96.0476V26.5239H99.1429ZM102.476 33.1906C102.462 32.2534 102.645 31.3236 103.014 30.4621C103.384 29.6005 103.93 28.8265 104.619 28.1906C105.994 26.8666 107.829 26.127 109.738 26.127C111.647 26.127 113.482 26.8666 114.857 28.1906C115.564 28.8628 116.121 29.6771 116.49 30.58C116.859 31.4829 117.033 32.4538 117 33.4287C117 34.3638 116.81 35.2891 116.442 36.1486C116.073 37.0081 115.534 37.7838 114.857 38.4287C114.176 39.1239 113.36 39.6725 112.459 40.041C111.559 40.4095 110.592 40.59 109.619 40.5715C108.684 40.5715 107.759 40.3816 106.899 40.0133C106.04 39.6449 105.264 39.1058 104.619 38.4287C103.19 37.0001 102.476 35.2541 102.476 33.1906ZM105.571 33.1906C105.571 34.6192 105.968 35.7303 106.762 36.5239C107.128 36.9113 107.572 37.2173 108.064 37.4224C108.556 37.6275 109.086 37.727 109.619 37.7144C110.889 37.7144 111.921 37.3176 112.714 36.5239C113.508 35.7303 113.825 34.6192 113.667 33.1906C113.667 31.9208 113.349 30.889 112.714 30.0954C112.321 29.6765 111.839 29.3518 111.303 29.1456C110.767 28.9395 110.191 28.8572 109.619 28.9049C109.086 28.8923 108.556 28.9918 108.064 29.1969C107.572 29.4019 107.128 29.708 106.762 30.0954C105.968 30.889 105.571 31.9208 105.571 33.1906ZM120.333 26.5239H123.429V27.7144C124.54 26.6033 125.81 26.0477 127.238 26.0477C128.825 26.0477 130.016 26.6033 130.81 27.7144C131.603 28.5081 132 29.8573 132 31.762V40.0954H128.905V32.4763C128.905 31.2065 128.667 30.2541 128.19 29.6192C127.952 29.143 127.238 28.9049 126.286 28.9049C125.333 28.9049 124.619 29.2223 124.143 29.8573C123.667 30.4922 123.429 31.6827 123.429 33.4287V40.0954H120.333V26.5239Z" fill="white" fill-opacity="0.82"/>
</g>
<defs>
<clipPath id="clip0-815888">
<rect width="95" height="30.9524" fill="white" transform="translate(37 16.5239)"/>
</clipPath>
</defs>
</svg>