<svg width="169" height="64" viewBox="0 0 169 64" fill="none" xmlns="http://www.w3.org/2000/svg">
<g clip-path="url(#clip0-270644)">
<path fill-rule="evenodd" clip-rule="evenodd" d="M47.849 16C43.0997 16 38.8397 18.0933 35.937 21.4067C39.1667 21.977 42.1838 23.4046 44.673 25.54C46.4101 26.9672 47.949 28.6198 49.249 30.454L49.9863 31.5553C50.0423 31.64 50.0721 31.7392 50.0721 31.8407C50.0721 31.9421 50.0423 32.0414 49.9863 32.126L49.2537 33.2273C47.9565 35.0632 46.4177 36.7159 44.679 38.1407C42.1918 40.2806 39.1733 41.7099 35.9417 42.278C38.8437 45.5887 43.1023 47.6793 47.8497 47.6793C56.5943 47.6793 63.683 40.588 63.683 31.8393C63.683 23.092 56.5943 16 47.8497 16" fill="white" fill-opacity="0.82"/>
<path fill-rule="evenodd" clip-rule="evenodd" d="M41.8083 32.0332C41.7875 32.2509 41.7235 32.4623 41.6199 32.6549C41.5163 32.8475 41.3753 33.0174 41.2052 33.1548C41.0351 33.2922 40.8392 33.3942 40.6291 33.4548C40.419 33.5155 40.1989 33.5335 39.9817 33.5079C39.7645 33.4824 39.5546 33.4137 39.3644 33.3059C39.1741 33.1981 39.0073 33.0534 38.8737 32.8802C38.7401 32.7071 38.6425 32.509 38.5865 32.2976C38.5305 32.0862 38.5173 31.8658 38.5476 31.6492C38.6072 31.2242 38.8309 30.8394 39.1707 30.5772C39.5105 30.315 39.9395 30.1963 40.3658 30.2465C40.792 30.2967 41.1817 30.5118 41.4513 30.8458C41.7209 31.1797 41.8491 31.606 41.8083 32.0332ZM46.1336 31.5659C44.3103 29.2719 40.0823 24.9086 34.0676 24.4906L33.8276 24.4766C32.6339 26.7472 32.0119 29.2746 32.0156 31.8399C32.0156 34.4959 32.6696 36.9979 33.8243 39.1966C33.9076 39.1919 33.991 39.1872 34.0736 39.1812C40.0816 38.7732 44.307 34.4206 46.1336 32.1266C46.1961 32.0465 46.23 31.9478 46.23 31.8462C46.23 31.7447 46.1961 31.646 46.1336 31.5659Z" fill="white" fill-opacity="0.82"/>
<path fill-rule="evenodd" clip-rule="evenodd" d="M33.8244 39.1967C28.6044 39.4613 23.4844 36.712 19.7644 32.0753C19.7106 32.0091 19.6811 31.9264 19.6811 31.841C19.6811 31.7556 19.7106 31.6729 19.7644 31.6067C23.4871 26.968 28.6111 24.218 33.8278 24.4767C34.4079 23.3739 35.1159 22.3432 35.9371 21.406C35.3812 21.3073 34.821 21.2343 34.2584 21.1873C29.3672 20.9664 24.5797 22.643 20.8951 25.8673C19.7804 26.7963 18.7511 27.8233 17.8198 28.936C17.8058 28.9497 17.7891 28.9603 17.7706 28.9668C17.7522 28.9733 17.7325 28.9757 17.7131 28.9738C17.6936 28.9719 17.6748 28.9657 17.658 28.9557C17.6412 28.9458 17.6267 28.9322 17.6158 28.916C16.5588 27.0581 15.7302 25.0793 15.1478 23.0227L15.1411 22.992C15.058 22.779 14.9315 22.5857 14.7697 22.4242C14.6078 22.2627 14.4142 22.1367 14.2011 22.054C14.0225 21.9801 13.8304 21.9446 13.6372 21.9499C13.4439 21.9552 13.254 22.0011 13.0798 22.0847C12.7504 22.2632 12.4873 22.543 12.3293 22.8826C12.1713 23.2223 12.1268 23.6038 12.2024 23.9707L12.2091 23.9907C12.9589 26.6829 14.0889 29.2543 15.5651 31.6273C15.6034 31.6883 15.6238 31.7589 15.6238 31.831C15.6238 31.9031 15.6034 31.9737 15.5651 32.0347C14.09 34.4163 12.9577 36.9938 12.2018 39.6913L12.1951 39.722V39.7527C12.1942 40.0852 12.2889 40.4109 12.468 40.691C12.6471 40.9712 12.9029 41.1939 13.2051 41.3327C13.3898 41.414 13.5884 41.4593 13.7904 41.4653C14.0541 41.4593 14.3124 41.3894 14.5432 41.2615C14.7739 41.1337 14.9702 40.9517 15.1151 40.7313L15.1344 40.7007L15.1464 40.67C15.7306 38.6066 16.5615 36.6211 17.6211 34.7567C17.6321 34.7405 17.6465 34.7269 17.6633 34.7169C17.6801 34.7069 17.6989 34.7008 17.7184 34.6988C17.7379 34.6969 17.7575 34.6993 17.776 34.7059C17.7944 34.7124 17.8112 34.7229 17.8251 34.7367C18.7585 35.8526 19.7897 36.8829 20.9064 37.8153C24.3126 40.769 28.6443 42.4386 33.1518 42.5353C33.5198 42.5353 33.8944 42.5253 34.2638 42.4953C34.8259 42.4491 35.3856 42.3768 35.9411 42.2787C35.1166 41.3383 34.4061 40.3038 33.8244 39.1967ZM134.506 25.38C134.968 25.38 135.349 25.2467 135.64 24.9847C135.933 24.7193 136.083 24.368 136.083 23.94C136.083 23.5127 135.933 23.164 135.638 22.904C135.348 22.6493 134.967 22.52 134.507 22.52C134.033 22.52 133.648 22.65 133.364 22.9053C133.077 23.164 132.931 23.512 132.931 23.94C132.931 24.3673 133.076 24.7187 133.363 24.984C133.647 25.2467 134.032 25.38 134.507 25.38" fill="white" fill-opacity="0.82"/>
<path fill-rule="evenodd" clip-rule="evenodd" d="M134.624 27.0574H129.076V26.7374C129.076 26.1587 129.203 25.7174 129.455 25.4227C129.705 25.132 130.116 24.9594 130.678 24.91L131.109 24.8714C131.412 24.842 131.655 24.7374 131.833 24.56C132.014 24.3787 132.106 24.1247 132.106 23.8034C132.106 23.3434 131.903 22.794 130.94 22.794C130.838 22.7914 130.736 22.7981 130.636 22.814L130.186 22.8527C128.985 22.96 128.039 23.386 127.375 24.1174C126.716 24.8434 126.379 25.832 126.373 27.0574H125.525C124.514 27.0574 124.301 27.6274 124.301 28.106C124.301 28.584 124.514 29.1547 125.525 29.1547H126.373V35.6934C126.373 36.11 126.507 36.4334 126.772 36.6534C127.029 36.868 127.353 36.9774 127.734 36.9774C128.116 36.9774 128.437 36.868 128.689 36.6527C128.945 36.432 129.075 36.1094 129.075 35.6934V29.1547H133.146V35.6934C133.146 36.1094 133.279 36.4354 133.543 36.662C133.801 36.884 134.125 36.9967 134.507 36.9967C134.889 36.9967 135.211 36.8834 135.463 36.6607C135.719 36.434 135.849 36.1087 135.849 35.694V28.1054C135.849 27.6267 135.636 27.0567 134.624 27.0567V27.0574ZM145.555 32.5554C145.328 32.1834 144.951 31.8707 144.435 31.626C143.933 31.3887 143.232 31.1747 142.353 30.9907C141.55 30.8254 141.004 30.6594 140.731 30.4974C140.484 30.352 140.364 30.1454 140.364 29.866C140.364 29.5687 140.484 29.3414 140.729 29.17C140.986 28.9907 141.346 28.9 141.799 28.9C142.186 28.9 142.513 28.9467 142.772 29.0394C143.037 29.134 143.361 29.2794 143.729 29.47C143.94 29.5887 144.119 29.68 144.259 29.7407C144.412 29.806 144.571 29.8387 144.731 29.8387C144.979 29.8387 145.191 29.734 145.359 29.5274C145.521 29.3287 145.603 29.0807 145.603 28.79C145.603 28.3147 145.372 27.9287 144.918 27.6454C144.505 27.3787 144.033 27.172 143.513 27.032C142.986 26.8916 142.442 26.8212 141.897 26.8227C141.126 26.8227 140.428 26.954 139.822 27.214C139.211 27.476 138.722 27.8527 138.371 28.3327C138.021 28.804 137.834 29.3764 137.837 29.9634C137.837 30.756 138.106 31.388 138.635 31.8414C139.151 32.284 140.01 32.6294 141.185 32.8667C141.827 33.0087 142.311 33.1354 142.626 33.2447C142.923 33.3474 143.13 33.458 143.239 33.5727C143.34 33.6794 143.389 33.8227 143.389 34.012C143.389 34.2914 143.26 34.504 142.993 34.6634C142.709 34.8327 142.3 34.9187 141.779 34.9187C141.259 34.9187 140.827 34.868 140.497 34.768C140.113 34.6482 139.739 34.5011 139.377 34.328C138.963 34.1067 138.643 33.9994 138.397 33.9994C138.151 33.9994 137.941 34.0967 137.772 34.288C137.608 34.4747 137.525 34.7167 137.525 35.0094C137.525 35.512 137.756 35.904 138.212 36.176C139.101 36.746 140.282 37.036 141.721 37.036C142.967 37.036 143.983 36.758 144.739 36.2094C145.507 35.6514 145.897 34.8987 145.897 33.9727C145.897 33.4034 145.781 32.9267 145.555 32.5554Z" fill="white" fill-opacity="0.82"/>
<mask id="mask0-419348" mask-type="alpha" maskUnits="userSpaceOnUse" x="147" y="22" width="10" height="15">
<path d="M147.526 22.7354H156.739V36.996H147.526V22.7354Z" fill="white"/>
</mask>
<g mask="url(#mask0-419348)">
<path fill-rule="evenodd" clip-rule="evenodd" d="M153.247 26.822C152.54 26.822 151.899 26.962 151.342 27.2367C150.912 27.447 150.533 27.7473 150.229 28.1174V23.9594C150.229 23.5834 150.102 23.2807 149.853 23.0607C149.608 22.8447 149.282 22.7354 148.888 22.7354C148.491 22.7354 148.162 22.8514 147.911 23.082C147.656 23.3154 147.526 23.6234 147.526 23.9987V35.6934C147.526 36.0934 147.648 36.4134 147.888 36.6467C148.128 36.8787 148.457 36.996 148.868 36.996C149.278 36.996 149.61 36.8794 149.856 36.648C150.103 36.4147 150.23 36.094 150.23 35.6934V31.332C150.23 30.6274 150.431 30.0587 150.828 29.642C151.225 29.2274 151.762 29.0174 152.426 29.0174C152.984 29.0174 153.394 29.164 153.648 29.452C153.906 29.746 154.036 30.2274 154.036 30.8827V35.6934C154.036 36.094 154.162 36.4153 154.41 36.648C154.655 36.8794 154.987 36.996 155.398 36.996C155.808 36.996 156.138 36.8787 156.377 36.6467C156.617 36.4134 156.739 36.0934 156.739 35.6934V30.8827C156.739 28.1887 155.564 26.8227 153.247 26.8227" fill="white" fill-opacity="0.82"/>
</g>
<path fill-rule="evenodd" clip-rule="evenodd" d="M75.9655 32.5554C75.7382 32.1834 75.3609 31.8707 74.8449 31.626C74.3429 31.3887 73.6429 31.1747 72.7629 30.9907C71.9602 30.8254 71.4142 30.6594 71.1409 30.4974C70.8942 30.352 70.7742 30.1454 70.7742 29.866C70.7742 29.5687 70.8942 29.3414 71.1395 29.17C71.3962 28.9907 71.7562 28.9 72.2089 28.9C72.5969 28.9 72.9235 28.9467 73.1822 29.0394C73.4475 29.134 73.7715 29.2794 74.1395 29.47C74.3502 29.5887 74.5289 29.68 74.6702 29.7407C74.8222 29.806 74.9809 29.8387 75.1415 29.8387C75.3895 29.8387 75.6009 29.734 75.7695 29.5274C75.9315 29.3287 76.0135 29.0807 76.0135 28.79C76.0135 28.3147 75.7822 27.9287 75.3289 27.6454C74.8951 27.3693 74.421 27.1624 73.9235 27.032C73.3962 26.8916 72.8526 26.8212 72.3069 26.8227C71.5362 26.8227 70.8389 26.954 70.2322 27.214C69.6209 27.476 69.1329 27.8527 68.7815 28.3327C68.4275 28.8154 68.2482 29.3647 68.2482 29.9634C68.2482 30.756 68.5162 31.388 69.0455 31.8414C69.5615 32.284 70.4202 32.6294 71.5949 32.8667C72.2375 33.0087 72.7222 33.1354 73.0362 33.2447C73.3335 33.3474 73.5402 33.458 73.6495 33.5727C73.7509 33.6794 73.7995 33.8227 73.7995 34.012C73.7995 34.2914 73.6702 34.504 73.4035 34.6634C73.1195 34.8327 72.7102 34.9187 72.1895 34.9187C71.6695 34.9187 71.2382 34.868 70.9075 34.768C70.5242 34.6482 70.1499 34.5011 69.7875 34.328C69.3729 34.1067 69.0529 33.9994 68.8075 33.9994C68.5609 33.9994 68.3509 34.0967 68.1822 34.288C68.0182 34.4747 67.9355 34.7167 67.9355 35.0094C67.9355 35.512 68.1662 35.904 68.6222 36.176C69.5122 36.746 70.6922 37.036 72.1309 37.036C73.3775 37.036 74.3935 36.758 75.1489 36.2094C75.9169 35.6514 76.3069 34.8987 76.3069 33.9727C76.3069 33.4034 76.1915 32.9267 75.9655 32.5554ZM83.2909 34.9187L82.7629 34.88C81.9495 34.82 81.5535 34.3574 81.5535 33.464V29.1547H83.0855C83.4669 29.1547 83.7675 29.0654 83.9795 28.89C84.1989 28.7087 84.3102 28.4447 84.3102 28.106C84.3102 27.7674 84.1989 27.5034 83.9795 27.3214C83.7675 27.146 83.4662 27.0574 83.0862 27.0574H81.5535V25.3867C81.5535 25 81.4282 24.6847 81.1802 24.4514C80.9349 24.2207 80.6089 24.1034 80.2122 24.1034C79.8022 24.1034 79.4695 24.2207 79.2242 24.4514C78.9769 24.6847 78.8509 24.9994 78.8509 25.3867V27.0567H78.0029C77.6222 27.0567 77.3215 27.1454 77.1095 27.3207C76.8895 27.5027 76.7789 27.7667 76.7789 28.1054C76.7789 28.444 76.8902 28.708 77.1095 28.8894C77.3209 29.0647 77.6215 29.154 78.0029 29.154H78.8509V33.2874C78.8509 35.5474 79.9962 36.7754 82.2549 36.9367L82.7855 36.9767C82.8509 36.9794 82.9142 36.9814 82.9762 36.9814C83.3815 36.9814 83.7075 36.904 83.9475 36.7507C84.2395 36.5634 84.3875 36.286 84.3875 35.9274C84.3875 35.4974 84.1975 34.9727 83.2909 34.918V34.9187ZM91.4089 32.518V32.7994C91.4089 33.4527 91.2135 33.9927 90.8282 34.402C90.4402 34.8154 89.9496 35.0167 89.3295 35.0167C88.9289 35.0167 88.6029 34.8967 88.3315 34.6494C88.0642 34.4054 87.9342 34.1014 87.9342 33.7187C87.9342 33.414 88.0229 33.1827 88.2055 33.0107C88.3942 32.8347 88.7195 32.7074 89.1742 32.6334C89.6475 32.5567 90.3249 32.518 91.1862 32.518H91.4089ZM92.9889 27.8487C92.3222 27.168 91.2942 26.822 89.9355 26.822C89.3155 26.822 88.6775 26.8954 88.0395 27.0407C87.3989 27.186 86.8382 27.388 86.3735 27.6407C86.0962 27.7934 85.8935 27.9607 85.7722 28.1407C85.6448 28.3329 85.579 28.5594 85.5835 28.79C85.5835 29.096 85.6702 29.3487 85.8409 29.5407C86.0149 29.7387 86.2416 29.8387 86.5142 29.8387C86.6929 29.8387 86.9549 29.7514 87.3042 29.576C87.8329 29.3694 88.2962 29.2094 88.6802 29.1007C89.0437 28.9957 89.4199 28.9414 89.7982 28.9394C90.3709 28.9394 90.7862 29.0734 91.0329 29.338C91.2822 29.6054 91.4089 30.046 91.4089 30.648V30.968H91.0489C89.6262 30.968 88.4922 31.0614 87.6782 31.2454C86.8469 31.4334 86.2355 31.7427 85.8602 32.1654C85.4822 32.592 85.2902 33.1807 85.2902 33.914C85.2902 34.498 85.4489 35.0354 85.7609 35.5107C86.0722 35.984 86.5029 36.3614 87.0429 36.6307C87.5795 36.8994 88.1849 37.0354 88.8409 37.0354C89.4862 37.0354 90.0649 36.8847 90.5595 36.5867C90.8984 36.3849 91.1888 36.1111 91.4102 35.7847C91.4249 36.1267 91.5462 36.41 91.7702 36.628C92.0095 36.8594 92.3195 36.9767 92.6915 36.9767C93.0896 36.9767 93.4095 36.8627 93.6415 36.6367C93.8749 36.4107 93.9942 36.1 93.9942 35.7134V30.9414C93.9942 29.57 93.6555 28.5294 92.9895 27.8487H92.9889ZM104.937 34.756L101.641 31.8L104.61 29.038C104.882 28.7667 105.019 28.4594 105.019 28.1254C105.019 27.792 104.895 27.4974 104.649 27.252C104.536 27.1341 104.401 27.0404 104.25 26.9767C104.1 26.913 103.939 26.8805 103.776 26.8814C103.442 26.8814 103.141 27.012 102.884 27.2687L98.9202 31.0687V24.0187C98.9202 23.602 98.7862 23.2787 98.5216 23.0587C98.2642 22.844 97.9402 22.7354 97.5589 22.7354C97.1769 22.7354 96.8555 22.844 96.6055 23.0594C96.3482 23.2794 96.2176 23.6027 96.2176 24.0187V35.6934C96.2176 36.1094 96.3482 36.432 96.6042 36.6527C96.8562 36.868 97.1776 36.9767 97.5589 36.9767C97.9402 36.9767 98.2642 36.868 98.5216 36.6534C98.7862 36.4334 98.9202 36.11 98.9202 35.6934V32.6414L103.276 36.5894C103.547 36.8467 103.847 36.9767 104.166 36.9767C104.49 36.9767 104.775 36.8447 105.014 36.5834C105.251 36.3247 105.371 36.0254 105.371 35.6934C105.371 35.3454 105.226 35.0307 104.938 34.756H104.937ZM113.044 30.9687H108.906C108.995 30.288 109.218 29.7567 109.569 29.3887C109.939 28.9994 110.444 28.802 111.068 28.802C111.686 28.802 112.154 28.99 112.496 29.3754C112.818 29.738 113.002 30.2734 113.044 30.9687ZM114.45 33.9994C114.244 33.9994 113.944 34.1067 113.537 34.324C113.138 34.504 112.778 34.6467 112.465 34.7494C112.161 34.8494 111.802 34.8994 111.4 34.8994C110.618 34.8994 110.018 34.698 109.614 34.3007C109.232 33.9234 108.993 33.3307 108.904 32.538H114.528C114.926 32.538 115.4 32.3694 115.4 31.5674C115.4 30.612 115.218 29.77 114.858 29.064C114.497 28.3547 113.981 27.7974 113.324 27.4074C112.668 27.0194 111.889 26.8227 111.01 26.8227C110.092 26.8227 109.257 27.0394 108.53 27.466C107.801 27.8945 107.21 28.5235 106.828 29.278C106.43 30.0494 106.228 30.9447 106.228 31.9387C106.228 33.5054 106.694 34.7607 107.615 35.6687C108.535 36.5754 109.795 37.0354 111.362 37.0354C111.877 37.0354 112.428 36.9587 112.998 36.806C113.533 36.6675 114.049 36.463 114.534 36.1974C115.057 35.9 115.322 35.52 115.322 35.068C115.322 34.752 115.244 34.4947 115.089 34.3014C115.013 34.2046 114.916 34.1269 114.805 34.0744C114.695 34.022 114.573 33.9963 114.45 33.9994ZM120.44 30.21C120.872 30.2613 121.266 30.4823 121.536 30.8243C121.806 31.1664 121.928 31.6015 121.877 32.034C121.826 32.4665 121.605 32.8609 121.263 33.1304C120.92 33.4 120.485 33.5226 120.053 33.4714C119.62 33.4201 119.226 33.1991 118.956 32.857C118.687 32.515 118.564 32.0798 118.616 31.6474C118.667 31.2149 118.888 30.8205 119.23 30.5509C119.572 30.2814 120.007 30.1587 120.44 30.21Z" fill="white" fill-opacity="0.82"/>
</g>
<defs>
<clipPath id="clip0-270644">
<rect width="144.667" height="32" fill="white" transform="translate(12.1665 16)"/>
</clipPath>
</defs>
</svg>