<svg width="169" height="64" viewBox="0 0 169 64" fill="none" xmlns="http://www.w3.org/2000/svg">
<path d="M52.7382 39.7826H55.3953V27.1237H60.2126V24.661H47.9209V27.1237H52.7382V39.7826Z" fill="white" fill-opacity="0.82"/>
<path d="M64.3867 40.0418C66.4821 40.0418 67.9727 39.1993 69.0528 37.9032L67.519 36.5422C66.6117 37.4279 65.7044 37.9032 64.4299 37.9032C62.7449 37.9032 61.4272 36.8663 61.1464 35.0085H69.528C69.5496 34.7492 69.5712 34.5116 69.5712 34.274C69.5712 30.9905 67.735 28.139 64.1059 28.139C60.8439 28.139 58.5325 30.8176 58.5325 34.0796V34.1228C58.5325 37.6439 61.0815 40.0418 64.3867 40.0418ZM61.1248 33.2803C61.3624 31.5089 62.4857 30.2776 64.0843 30.2776C65.8124 30.2776 66.8061 31.5953 66.979 33.2803H61.1248Z" fill="white" fill-opacity="0.82"/>
<path d="M71.0945 39.7826H73.73V33.3451C73.73 31.5737 74.7885 30.5152 76.3007 30.5152C77.856 30.5152 78.7417 31.5305 78.7417 33.3019V39.7826H81.3556V32.5026C81.3556 29.8671 79.865 28.139 77.2944 28.139C75.523 28.139 74.4645 29.0679 73.73 30.1264V28.3766H71.0945V39.7826Z" fill="white" fill-opacity="0.82"/>
<path d="M88.1412 40.0202C89.999 40.0202 91.1871 39.0697 92.0296 37.8816V39.7826H94.6435V24.0129H92.0296V30.148C91.2087 29.0679 90.0206 28.139 88.1412 28.139C85.4193 28.139 82.8487 30.2776 82.8487 34.058V34.1012C82.8487 37.8816 85.4625 40.0202 88.1412 40.0202ZM88.7677 37.752C86.9963 37.752 85.4841 36.3046 85.4841 34.1012V34.058C85.4841 31.8113 86.9747 30.4072 88.7677 30.4072C90.5175 30.4072 92.0728 31.8545 92.0728 34.058V34.1012C92.0728 36.283 90.5175 37.752 88.7677 37.752Z" fill="white" fill-opacity="0.82"/>
<path d="M102.072 40.0418C104.168 40.0418 105.658 39.1993 106.739 37.9032L105.205 36.5422C104.297 37.4279 103.39 37.9032 102.116 37.9032C100.431 37.9032 99.1129 36.8663 98.8321 35.0085H107.214C107.235 34.7492 107.257 34.5116 107.257 34.274C107.257 30.9905 105.421 28.139 101.792 28.139C98.5297 28.139 96.2182 30.8176 96.2182 34.0796V34.1228C96.2182 37.6439 98.7673 40.0418 102.072 40.0418ZM98.8105 33.2803C99.0481 31.5089 100.171 30.2776 101.77 30.2776C103.498 30.2776 104.492 31.5953 104.665 33.2803H98.8105Z" fill="white" fill-opacity="0.82"/>
<path d="M108.78 39.7826H111.416V35.4405C111.416 32.4162 113.014 30.9257 115.304 30.9257H115.455V28.1606C113.446 28.0742 112.129 29.2407 111.416 30.9473V28.3766H108.78V39.7826Z" fill="white" fill-opacity="0.82"/>
<path d="M116.624 39.7826H119.259V33.3451C119.259 31.5953 120.253 30.5152 121.7 30.5152C123.148 30.5152 124.012 31.5089 124.012 33.2803V39.7826H126.626V33.3451C126.626 31.5089 127.641 30.5152 129.067 30.5152C130.536 30.5152 131.378 31.4873 131.378 33.3019V39.7826H133.992V32.5026C133.992 29.7159 132.48 28.139 129.996 28.139C128.267 28.139 127.058 28.9382 126.15 30.148C125.545 28.9382 124.379 28.139 122.737 28.139C120.987 28.139 119.994 29.0895 119.259 30.1048V28.3766H116.624V39.7826Z" fill="white" fill-opacity="0.82"/>
<path d="M136.114 26.6268H138.922V24.1426H136.114V26.6268ZM136.2 39.7826H138.836V28.3766H136.2V39.7826Z" fill="white" fill-opacity="0.82"/>
<path d="M141.15 39.7826H143.785V33.3451C143.785 31.5737 144.844 30.5152 146.356 30.5152C147.911 30.5152 148.797 31.5305 148.797 33.3019V39.7826H151.411V32.5026C151.411 29.8671 149.92 28.139 147.35 28.139C145.578 28.139 144.52 29.0679 143.785 30.1264V28.3766H141.15V39.7826Z" fill="white" fill-opacity="0.82"/>
<path d="M157.311 39.977C158.305 39.977 159.017 39.761 159.666 39.3937V37.2551C159.147 37.5143 158.629 37.6439 158.045 37.6439C157.16 37.6439 156.641 37.2335 156.641 36.2182V30.6232H159.709V28.3766H156.641V25.2443H154.027V28.3766H152.58V30.6232H154.027V36.6286C154.027 39.1345 155.388 39.977 157.311 39.977Z" fill="white" fill-opacity="0.82"/>
<ellipse cx="25" cy="32" rx="17" ry="17" fill="white" fill-opacity="0.82"/>
<path fill-rule="evenodd" clip-rule="evenodd" d="M28.6007 28.2563C27.4627 27.8097 26.2371 27.5764 24.9993 27.5764C22.3977 27.5764 19.9506 28.5932 18.1089 30.4393C16.2751 32.2773 15.2564 34.7189 15.24 37.3141L15.2378 37.6627L15.542 37.8349C17.0081 38.6653 18.6662 39.1022 20.3463 39.1022C20.3925 39.1022 20.439 39.1019 20.4853 39.1012C21.9499 39.0802 23.3988 38.7296 24.7124 38.0826C24.2982 37.8519 23.9013 37.5922 23.524 37.3059C21.2344 38.2038 18.6396 38.0931 16.4436 36.9685C16.6572 32.4142 20.4238 28.7661 24.9993 28.7661C26.2718 28.7661 27.5288 29.0463 28.664 29.5788C28.6786 29.1379 28.6576 28.696 28.6007 28.2563Z" fill="black"/>
<path fill-rule="evenodd" clip-rule="evenodd" d="M34.7586 37.2333C34.7237 34.0066 33.1454 31.0628 30.5144 29.2695C30.5163 29.7417 30.4846 30.2136 30.4195 30.6826C32.289 32.2022 33.4287 34.4398 33.5534 36.8913C29.5207 38.9598 24.4914 37.5112 22.2005 33.5583C21.5818 32.4905 21.2024 31.2967 21.0909 30.0769C20.7017 30.2882 20.3299 30.5313 19.979 30.8038C20.1641 31.9777 20.5662 33.1177 21.1663 34.1531C22.4695 36.4017 24.5646 38.0138 27.0655 38.6923C27.914 38.9226 28.7767 39.0365 29.6347 39.0365C31.3063 39.0365 32.9601 38.6041 34.4565 37.7568L34.7622 37.5836L34.7586 37.2333Z" fill="black"/>
<path fill-rule="evenodd" clip-rule="evenodd" d="M25.3443 20.8539L25.0427 20.6777L24.741 20.8536C23.2504 21.722 22.0121 22.967 21.1597 24.4539C20.4237 25.7381 19.9883 27.1766 19.8862 28.645C20.2943 28.4035 20.7194 28.1912 21.1589 28.0098C21.5375 25.5892 22.9515 23.4016 25.0422 22.0648C28.8819 24.5225 30.1446 29.6182 27.8382 33.5977C27.2136 34.6755 26.3596 35.6073 25.3478 36.3227C25.7257 36.5521 26.1226 36.7513 26.5349 36.9179C27.4702 36.1629 28.2665 35.2382 28.8725 34.1926C31.5653 29.5463 29.9825 23.5626 25.3443 20.8539Z" fill="black"/>
<path fill-rule="evenodd" clip-rule="evenodd" d="M24.9999 31.0043C24.4508 31.0043 24.0041 31.4511 24.0041 32.0002C24.0041 32.5493 24.4508 32.9961 24.9999 32.9961C25.5491 32.9961 25.9958 32.5493 25.9958 32.0002C25.9958 31.4511 25.5491 31.0043 24.9999 31.0043ZM24.9999 34.1919C23.7913 34.1919 22.8081 33.2087 22.8081 32.0001C22.8081 30.7916 23.7913 29.8083 24.9999 29.8083C26.2085 29.8083 27.1918 30.7916 27.1918 32.0001C27.1918 33.2087 26.2085 34.1919 24.9999 34.1919Z" fill="black"/>
</svg>